solid stl file generated from AC3D
 facet normal 0.000000 0.000000 1.000000
  outer loop
   vertex -0.025000 0.002500 0.025000
   vertex 0.025000 -0.002500 0.025000
   vertex 0.025000 0.002500 0.025000
  endloop
 endfacet
 facet normal 0.000000 0.000000 1.000000
  outer loop
   vertex 0.025000 -0.002500 0.025000
   vertex -0.025000 0.002500 0.025000
   vertex -0.025000 -0.002500 0.025000
  endloop
 endfacet
 facet normal 0.000000 0.000000 -1.000000
  outer loop
   vertex -0.025000 -0.002500 -0.025000
   vertex 0.025000 0.002500 -0.025000
   vertex 0.025000 -0.002500 -0.025000
  endloop
 endfacet
 facet normal 0.000000 0.000000 -1.000000
  outer loop
   vertex 0.025000 0.002500 -0.025000
   vertex -0.025000 -0.002500 -0.025000
   vertex -0.025000 0.002500 -0.025000
  endloop
 endfacet
 facet normal 0.000000 1.000000 0.000000
  outer loop
   vertex 0.025000 0.002500 -0.025000
   vertex -0.025000 0.002500 0.025000
   vertex 0.025000 0.002500 0.025000
  endloop
 endfacet
 facet normal 0.000000 1.000000 0.000000
  outer loop
   vertex -0.025000 0.002500 0.025000
   vertex 0.025000 0.002500 -0.025000
   vertex -0.025000 0.002500 -0.025000
  endloop
 endfacet
 facet normal 0.000000 -1.000000 -0.000000
  outer loop
   vertex -0.025000 -0.002500 -0.025000
   vertex 0.025000 -0.002500 0.025000
   vertex -0.025000 -0.002500 0.025000
  endloop
 endfacet
 facet normal 0.000000 -1.000000 -0.000000
  outer loop
   vertex 0.025000 -0.002500 0.025000
   vertex -0.025000 -0.002500 -0.025000
   vertex 0.025000 -0.002500 -0.025000
  endloop
 endfacet
 facet normal -1.000000 0.000000 0.000000
  outer loop
   vertex -0.025000 -0.002500 -0.025000
   vertex -0.025000 0.002500 0.025000
   vertex -0.025000 0.002500 -0.025000
  endloop
 endfacet
 facet normal -1.000000 0.000000 0.000000
  outer loop
   vertex -0.025000 0.002500 0.025000
   vertex -0.025000 -0.002500 -0.025000
   vertex -0.025000 -0.002500 0.025000
  endloop
 endfacet
 facet normal 1.000000 0.000000 0.000000
  outer loop
   vertex 0.025000 0.002500 0.025000
   vertex 0.025000 -0.002500 -0.025000
   vertex 0.025000 0.002500 -0.025000
  endloop
 endfacet
 facet normal 1.000000 0.000000 0.000000
  outer loop
   vertex 0.025000 -0.002500 -0.025000
   vertex 0.025000 0.002500 0.025000
   vertex 0.025000 -0.002500 0.025000
  endloop
 endfacet
endsolid
